Coordinates
version=1
nRows=26
nColumns=22
inDegrees=yes

Units are S.I. units (second, meters, Newtons, ...)
If the header above contains a line with 'inDegrees', this indicates whether rotational values are in degrees (yes) or radians (no).

endheader
time	pelvis_tilt	pelvis_list	pelvis_rotation	pelvis_tx	pelvis_ty	pelvis_tz	hip_flexion_r	hip_adduction_r	hip_rotation_r	knee_angle_r	ankle_angle_r	subtalar_angle_r	hip_flexion_l	hip_adduction_l	hip_rotation_l	knee_angle_l	ankle_angle_l	subtalar_angle_l	lumbar_extension	lumbar_bending	lumbar_rotation
      1.29000000	     -4.23350555	      0.13022370	    -31.00562826	     -0.78104797	      0.88370235	     -0.03461480	     26.42077432	     -5.48387666	      0.72707469	    -58.81508403	      7.21858320	     15.31908462	     12.44043415	     -0.55214388	     -5.59866350	    -25.20326465	     17.83808666	     -1.61143615	     -4.51939350	     -3.90977965	     11.93082128
      1.30000000	     -4.10611778	      0.12503259	    -30.47615870	     -0.77249247	      0.88393100	     -0.03214465	     26.99528101	     -5.56053479	      0.49993520	    -56.96235159	      7.58267540	     15.61075815	     11.36447534	     -0.25747747	     -5.25070752	    -24.47662681	     18.09022354	     -1.48190375	     -4.53314544	     -3.97504575	     11.53301586
      1.31000000	     -3.93231969	      0.12324158	    -30.02842416	     -0.76400625	      0.88413263	     -0.02950246	     27.46162497	     -5.63608920	      0.36410358	    -54.94690856	      7.73372298	     15.94094586	     10.21207464	      0.03202608	     -4.96461267	    -23.70632728	     18.31874459	     -1.32917036	     -4.59360893	     -4.08120175	     11.25654372
      1.32000000	     -3.79562200	      0.18085586	    -29.54170281	     -0.75554593	      0.88409109	     -0.02690564	     27.93333662	     -5.80288761	      0.15068921	    -52.82888103	      7.76237956	     16.02113104	      9.15325726	      0.35248760	     -4.59827541	    -22.97795090	     18.53647527	     -1.23724386	     -4.59838885	     -4.22407748	     10.94273108
      1.33000000	     -3.67855508	      0.28455520	    -29.05352301	     -0.74713260	      0.88386625	     -0.02429407	     28.38949132	     -6.02560699	     -0.08392187	    -50.60676118	      7.65676731	     15.96421171	      8.15492068	      0.69118091	     -4.21132052	    -22.28780669	     18.73018077	     -1.18794902	     -4.57083544	     -4.40087657	     10.62338484
      1.34000000	     -3.52956495	      0.38407739	    -28.60069149	     -0.73874538	      0.88357485	     -0.02157952	     28.73893699	     -6.24663730	     -0.27828519	    -48.26659361	      7.54845474	     15.73110075	      7.11227227	      1.02367650	     -3.82833515	    -21.59532366	     18.95497421	     -1.20748358	     -4.58582217	     -4.59602784	     10.37693572
      1.35000000	     -3.41956044	      0.52545031	    -28.13536282	     -0.73040232	      0.88307705	     -0.01884428	     29.09074042	     -6.49940564	     -0.48535872	    -45.84555962	      7.38184800	     15.37211511	      6.15151487	      1.36062406	     -3.41388318	    -20.95097978	     19.16468188	     -1.27999525	     -4.55347146	     -4.81308870	     10.11836234
      1.36000000	     -3.35076748	      0.71228470	    -27.65011510	     -0.72209467	      0.88236110	     -0.01613587	     29.44616449	     -6.78193873	     -0.67999085	    -43.34486863	      7.20516203	     15.07164952	      5.28744070	      1.70980611	     -2.95381726	    -20.37539289	     19.36417348	     -1.33221077	     -4.47317397	     -5.04710590	      9.83130554
      1.37000000	     -3.26246000	      0.87715163	    -27.21048876	     -0.71381575	      0.88157368	     -0.01324468	     29.69850840	     -7.00431523	     -0.79370300	    -40.73923746	      7.10073192	     14.51660513	      4.38832720	      2.02037228	     -2.54877749	    -19.81650961	     19.62139553	     -1.50175080	     -4.42896473	     -5.28196301	      9.63419603
      1.38000000	     -3.22675020	      1.09298308	    -26.73205095	     -0.70555620	      0.88055340	     -0.01038703	     29.96890397	     -7.25582207	     -0.88694821	    -38.06561093	      6.97221117	     14.19341921	      3.61149699	      2.34201525	     -2.10131839	    -19.34793797	     19.84650554	     -1.57260198	     -4.32304223	     -5.53506382	      9.38094934
      1.39000000	     -3.19076391	      1.29985180	    -26.28371257	     -0.69727329	      0.87942214	     -0.00741474	     30.16715640	     -7.46157361	     -0.90213335	    -35.30469025	      6.87979587	     13.83204346	      2.83424965	      2.63695903	     -1.69063063	    -18.91372615	     20.10396756	     -1.67197720	     -4.22422342	     -5.77662897	      9.18553536
      1.40000000	     -3.17606686	      1.52362691	    -25.83548031	     -0.68896866	      0.87813155	     -0.00437560	     30.33214218	     -7.64778128	     -0.84551812	    -32.47554512	      6.79794607	     13.54692909	      2.10635768	      2.92044904	     -1.30347862	    -18.53547819	     20.37549766	     -1.74881016	     -4.10173759	     -6.02266898	      9.00510410
      1.41000000	     -3.16125681	      1.74594441	    -25.39001412	     -0.68060609	      0.87672898	     -0.00123710	     30.43456760	     -7.81000275	     -0.73218378	    -29.59225401	      6.73729925	     13.34604695	      1.38948010	      3.18417477	     -0.92799787	    -18.20535861	     20.66644028	     -1.80798944	     -3.98184854	     -6.26919557	      8.85096839
      1.42000000	     -3.16312225	      1.98006207	    -24.93174762	     -0.67216543	      0.87519548	      0.00194337	     30.50181969	     -7.96401888	     -0.56611071	    -26.67401612	      6.65310412	     13.29065489	      0.71065362	      3.43639658	     -0.56303605	    -17.92714281	     20.94767029	     -1.82071287	     -3.84251847	     -6.51102747	      8.68518610
      1.43000000	     -3.15606349	      2.20086938	    -24.46736298	     -0.66360444	      0.87358625	      0.00519391	     30.49987584	     -8.10203040	     -0.37578837	    -23.74240925	      6.57362515	     13.36610364	      0.01692687	      3.66408593	     -0.19364622	    -17.68015551	     21.23919122	     -1.80513657	     -3.71598764	     -6.73668976	      8.53298617
      1.44000000	     -3.14595438	      2.41168300	    -23.98865219	     -0.65492375	      0.87190082	      0.00850666	     30.44509797	     -8.22786466	     -0.15346949	    -20.83339845	      6.48969194	     13.60880184	     -0.68602268	      3.86627221	      0.18505910	    -17.45732030	     21.54251027	     -1.75161786	     -3.59578557	     -6.94577718	      8.36704305
      1.45000000	     -3.13851469	      2.60932393	    -23.48945111	     -0.64613246	      0.87014519	      0.01188333	     30.34936589	     -8.34306420	      0.07591453	    -17.97978487	      6.39504539	     14.01970819	     -1.38613887	      4.03419208	      0.57973813	    -17.27228084	     21.83695261	     -1.65436580	     -3.47810222	     -7.13644644	      8.19902263
      1.46000000	     -3.13674326	      2.79830122	    -22.97628201	     -0.63722749	      0.86831449	      0.01531181	     30.23338944	     -8.45202402	      0.31196132	    -15.22751542	      6.28052532	     14.60032640	     -2.08474913	      4.17318550	      0.98989158	    -17.11241025	     22.13073128	     -1.51293961	     -3.35754572	     -7.30613618	      8.02323098
      1.47000000	     -3.14097025	      2.97438682	    -22.45092397	     -0.62821351	      0.86642181	      0.01880972	     30.10859921	     -8.55145998	      0.53056746	    -12.62785608	      6.15290523	     15.34125064	     -2.77850470	      4.27782192	      1.41828434	    -16.98699419	     22.41072146	     -1.33056846	     -3.23447124	     -7.45356256	      7.85547128
      1.48000000	     -3.15765254	      3.12726397	    -21.90693455	     -0.61909092	      0.86448288	      0.02239580	     29.98479500	     -8.63152643	      0.71317996	    -10.23258986	      6.01899965	     16.18199727	     -3.46322581	      4.33121705	      1.86927303	    -16.89796165	     22.64706492	     -1.11979295	     -3.10662127	     -7.57147166	      7.70421772
      1.49000000	     -3.17494127	      3.29353993	    -21.36775051	     -0.60988746	      0.86246615	      0.02605575	     29.91763849	     -8.72316428	      0.90907037	     -8.15283109	      5.90023616	     17.18947921	     -4.13768697	      4.38116518	      2.32759842	    -16.83884064	     22.93753868	     -0.86924596	     -2.97358325	     -7.69575470	      7.55170506
      1.50000000	     -3.21330180	      3.42243832	    -20.81361102	     -0.60055390	      0.86043449	      0.02981358	     29.88112533	     -8.77836411	      1.06899059	     -6.40399990	      5.79710920	     18.09633418	     -4.80527547	      4.36308721	      2.80132761	    -16.80290389	     23.14775323	     -0.62524605	     -2.82971613	     -7.76686236	      7.39248584
      1.51000000	     -3.25768410	      3.53814160	    -20.27234554	     -0.59115571	      0.85837699	      0.03367558	     29.91342399	     -8.81420326	      1.25237988	     -5.07760626	      5.73586269	     18.97323098	     -5.45860205	      4.31332749	      3.29616431	    -16.80934010	     23.36446559	     -0.36524617	     -2.68636232	     -7.82139416	      7.27917655
      1.52000000	     -3.31743733	      3.62233519	    -19.73491887	     -0.58166771	      0.85632890	      0.03763387	     30.00727230	     -8.81570531	      1.46700042	     -4.19316941	      5.70336878	     19.62649947	     -6.10082371	      4.20854312	      3.80008876	    -16.84339709	     23.53962094	     -0.11730199	     -2.53867281	     -7.83023820	      7.18492365
      1.53000000	     -3.39160183	      3.67528921	    -19.21440252	     -0.57211983	      0.85429934	      0.04171445	     30.16396642	     -8.77599077	      1.74948367	     -3.75977015	      5.67107081	     20.03471843	     -6.73145571	      4.05113689	      4.31306833	    -16.90276332	     23.68752122	      0.12492767	     -2.38669520	     -7.79818692	      7.11869545
      1.54000000	     -3.48935101	      3.69779445	    -18.71318638	     -0.56252589	      0.85230341	      0.04591603	     30.38309083	     -8.69101519	      2.13428262	     -3.75552039	      5.58292269	     20.14147575	     -7.33670764	      3.84066742	      4.83008902	    -16.99027228	     23.78864311	      0.31549985	     -2.22114435	     -7.72162333	      7.07315330
